<svg version="1.1" id="Layer_1" xmlns="http://www.w3.org/2000/svg" xmlns:xlink="http://www.w3.org/1999/xlink" x="0px" y="0px" viewBox="0 0 500 500" style="width: 166px;" xml:space="preserve" data-imageid="dog-walking-61" imageName="Dog Walking" class="illustrations_image">
<style type="text/css">
	.st0_dog-walking-61{fill:#D1D3D4;}
	.st1_dog-walking-61{fill:#FFFFFF;}
	.st2_dog-walking-61{fill:#231F20;}
	.st3_dog-walking-61{fill:#68E1FD;}
</style>
<g id="Plant_Background_dog-walking-61">
	<path class="st0_dog-walking-61" d="M134.4,387.7c-0.4,0-0.7-0.3-0.7-0.7c0-0.1,0-0.2,0-0.2c7.5-19.5,23.9-34.2,44.1-39.6&#10;&#9;&#9;c3.3-0.8,7.5-1.7,11.6-0.6c2.8,0.7,5.3,2.4,7,4.8c1.6-20.8,19.6-36.3,40.4-34.8c6.5,0.5,12.8,2.6,18.2,6.3&#10;&#9;&#9;c-0.4-4.4,1.6-8.7,5.1-11.4c3.3-2.6,7.7-4,13.6-4.4c27.7-1.9,51.6,19.1,53.5,46.8c0.1,1,0.1,2,0.1,2.9c8.4,1.1,16.2,4.8,22.2,10.6&#10;&#9;&#9;c3,2.9,5.2,7,4.3,10.5c3.3-1.4,7.1-1.5,10.5-0.3c2.8,0.9,5.4,2.7,7.2,5.1c0.1-0.1,0.2-0.2,0.4-0.2c0.4-0.1,0.7,0.2,0.8,0.5l0.7,3.2&#10;&#9;&#9;c0.1,0.4-0.1,0.7-0.5,0.8c-0.4,0.1-0.7-0.1-0.9-0.5c-2.8-6.9-10.7-10.2-17.6-7.4c-0.6,0.3-1.2,0.5-1.8,0.9&#10;&#9;&#9;c-0.3,0.2-0.7,0.1-0.9-0.1c-0.2-0.2-0.3-0.6-0.1-0.9c2.2-3.1-0.1-7.6-3.2-10.7c-6-5.8-13.7-9.4-22-10.3c-0.4,0-0.6-0.3-0.6-0.7&#10;&#9;&#9;c0.1-27-21.7-48.9-48.6-49c-1.2,0-2.3,0-3.5,0.1c-5.6,0.4-9.8,1.7-12.8,4.1c-3.8,3-5.5,7.8-4.2,11.7c0.1,0.3,0,0.6-0.3,0.8&#10;&#9;&#9;c-0.2,0.2-0.6,0.2-0.8,0c-16.1-11.9-38.9-8.5-50.8,7.6c-4.7,6.4-7.2,14.1-7.1,22.1c0,0.4-0.3,0.7-0.6,0.7c-0.4,0-0.7-0.2-0.8-0.6&#10;&#9;&#9;c-0.6-3.7-4.1-6.1-7.2-6.9c-3.8-1-7.8-0.2-10.9,0.6c-19.7,5.3-35.8,19.7-43.1,38.8C135,387.5,134.7,387.7,134.4,387.7z"/>
	<circle class="st1_dog-walking-61" cx="306" cy="184.8" r="73.9"/>
	<path class="st0_dog-walking-61" d="M306,259.4c-41.2,0-74.6-33.4-74.6-74.6s33.4-74.6,74.6-74.6s74.6,33.4,74.6,74.6c0,0,0,0,0,0&#10;&#9;&#9;C380.6,226,347.2,259.4,306,259.4z M306,111.6c-40.4,0-73.2,32.8-73.2,73.2S265.6,258,306,258s73.2-32.8,73.2-73.2&#10;&#9;&#9;C379.2,144.4,346.4,111.7,306,111.6z"/>
	<path class="st0_dog-walking-61" d="M306,389.8c-0.4,0-0.7-0.3-0.7-0.7V128c0-0.4,0.3-0.7,0.7-0.7c0.4,0,0.7,0.3,0.7,0.7v261&#10;&#9;&#9;C306.7,389.4,306.4,389.7,306,389.8C306,389.8,306,389.8,306,389.8z"/>
	<path class="st0_dog-walking-61" d="M306,215.2c-0.2,0-0.3-0.1-0.5-0.2c-0.3-0.3-0.3-0.7-0.1-1l29.4-34.6c0.2-0.3,0.7-0.4,1-0.1&#10;&#9;&#9;c0.3,0.2,0.4,0.7,0.1,1c0,0,0,0-0.1,0.1L306.5,215C306.4,215.1,306.2,215.2,306,215.2z"/>
	<path class="st0_dog-walking-61" d="M306,192.2c-0.1,0-0.3,0-0.4-0.1l-37.5-26.6c-0.3-0.2-0.4-0.6-0.2-1c0.2-0.3,0.6-0.4,1-0.2c0,0,0,0,0.1,0&#10;&#9;&#9;l37.5,26.6c0.3,0.2,0.4,0.7,0.2,1c0,0,0,0,0,0C306.4,192.1,306.2,192.2,306,192.2z"/>
	<path class="st0_dog-walking-61" d="M306,160.4c-0.2,0-0.4-0.1-0.5-0.2c-0.3-0.3-0.2-0.7,0-1c0,0,0,0,0,0l14.7-13.2c0.2-0.3,0.7-0.4,1-0.2&#10;&#9;&#9;c0.3,0.2,0.4,0.7,0.2,1c-0.1,0.1-0.1,0.2-0.2,0.2l-14.7,13.2C306.3,160.3,306.2,160.4,306,160.4z"/>
	<path class="st0_dog-walking-61" d="M322.7,195.6c-0.3,0-0.6-0.2-0.7-0.6c-0.1-0.4,0.2-0.7,0.6-0.8l20.4-3.4c0.4,0,0.7,0.2,0.8,0.6&#10;&#9;&#9;c0,0.4-0.2,0.7-0.6,0.8l-20.4,3.4L322.7,195.6z"/>
	<path class="st0_dog-walking-61" d="M306,230c-0.1,0-0.3,0-0.4-0.1l-30.5-21c-0.3-0.2-0.3-0.7-0.1-1c0.2-0.3,0.6-0.3,0.9-0.2l30.5,21&#10;&#9;&#9;c0.3,0.2,0.4,0.7,0.2,1C306.5,229.9,306.2,230,306,230z"/>
	<path class="st0_dog-walking-61" d="M288,179.4c-0.3,0-0.5-0.2-0.6-0.4l-9.2-22.2c-0.2-0.3,0-0.8,0.3-0.9s0.8,0,0.9,0.3c0,0,0,0,0,0.1l9.2,22.2&#10;&#9;&#9;c0.2,0.4,0,0.8-0.4,0.9c0,0,0,0,0,0C288.2,179.4,288.1,179.4,288,179.4z"/>
</g>
<path id="Ground_dog-walking-61" class="st0_dog-walking-61" d="M448.7,389.8H51.3c-0.4,0-0.7-0.3-0.7-0.7c0-0.4,0.3-0.7,0.7-0.7h397.3c0.4,0,0.7,0.3,0.7,0.7&#10;&#9;C449.4,389.4,449.1,389.8,448.7,389.8z"/>
<g id="Character_dog-walking-61">
	<path class="st1_dog-walking-61" d="M105.1,193.2c0,0-8.4,23.5-9.5,29.9s1.4,50.6,4.8,59s10.1,9.8,10.1,7.5v-9.5c0,0,3.6,6.1,4.8,2s-5-11-5-13.2&#10;&#9;&#9;s0.5-41,1.3-43.8s10.2-26.7,10.2-26.7"/>
	<path class="st2_dog-walking-61" d="M109.1,291.4c-2.6,0-7-2.9-9.4-8.9c-3.5-8.7-5.8-53.4-4.8-59.4c1.1-6.4,9.2-29.1,9.5-30&#10;&#9;&#9;c0.1-0.4,0.5-0.6,0.9-0.4c0.4,0.1,0.6,0.5,0.4,0.9c-0.1,0.2-8.4,23.5-9.5,29.8c-1.2,6.9,1.5,50.6,4.7,58.6c2.6,6.4,7,8.3,8.4,8&#10;&#9;&#9;c0.3,0,0.3-0.2,0.3-0.2v-9.5c0-0.4,0.3-0.7,0.7-0.7c0.2,0,0.5,0.1,0.6,0.3c0.9,1.5,2.4,3.2,3,3.1c0.1,0,0.3-0.3,0.5-0.9&#10;&#9;&#9;c0.6-2.3-1.4-5.8-3-8.6c-1.1-1.9-2-3.4-2-4.4c0-0.4,0.4-41,1.4-44c0.8-2.8,9.9-25.8,10.3-26.8c0.1-0.4,0.5-0.5,0.9-0.4&#10;&#9;&#9;c0.4,0.1,0.5,0.5,0.4,0.9c-0.1,0.2-9.4,23.9-10.2,26.7s-1.3,40.3-1.3,43.6c0,0.6,0.9,2.2,1.8,3.7c1.8,3,3.9,6.8,3.2,9.7&#10;&#9;&#9;c-0.3,1.2-0.9,1.9-1.7,2c-1.1,0.1-2.2-0.9-3-1.9v7.3c0,0.8-0.6,1.5-1.4,1.6C109.5,291.4,109.3,291.4,109.1,291.4z"/>
	<path class="st1_dog-walking-61" d="M171.4,200.8c0,0,26.9,36,29.1,38.3s12.1,5.3,12.5,6.1s-0.4,9.6-1.9,11.3c-1.5,1.7-7.6,1.7-9.6,0s-5.7-9-5.7-9&#10;&#9;&#9;l-32.4-21L171.4,200.8z"/>
	<path class="st2_dog-walking-61" d="M206.5,258.5c-1.9,0.1-3.8-0.4-5.4-1.4c-2-1.6-5.2-7.9-5.8-9.1l-32.2-20.9c-0.3-0.2-0.4-0.5-0.3-0.8l8-25.7&#10;&#9;&#9;c0.1-0.3,0.3-0.4,0.6-0.5c0.3,0,0.5,0.1,0.7,0.3c0.3,0.4,26.8,36,29,38.2c1.2,1.2,5.3,2.9,8.2,4.1c3.4,1.4,4.2,1.7,4.4,2.2&#10;&#9;&#9;c0.6,1.2-0.4,10.3-2,12.1C210.8,258,208.7,258.5,206.5,258.5z M164.3,226.3l32,20.7c0.1,0.1,0.2,0.2,0.2,0.3c1,2,3.9,7.5,5.5,8.8&#10;&#9;&#9;c1.9,1.5,7.6,1.4,8.7,0.1s2-9.1,1.8-10.5c-1.2-0.6-2.4-1.2-3.7-1.6c-3.2-1.3-7.3-2.9-8.7-4.4c-2-2.1-23.7-31.1-28.3-37.2&#10;&#9;&#9;L164.3,226.3z"/>
	<polygon class="st1_dog-walking-61" points="99.3,339.1 134.8,311.7 133.2,279.1 164.4,280.8 163.1,322.1 101.9,357.1 &#9;"/>
	<path class="st2_dog-walking-61" d="M101.9,357.8c-0.1,0-0.2,0-0.3-0.1c-0.2-0.1-0.4-0.3-0.4-0.5l-2.7-18c0-0.3,0.1-0.5,0.3-0.7l35.3-27.2&#10;&#9;&#9;l-1.6-32.2c0-0.2,0.1-0.4,0.2-0.5c0.1-0.1,0.3-0.2,0.5-0.2l31.2,1.7c0.4,0,0.7,0.3,0.7,0.7l-1.3,41.4c0,0.2-0.1,0.5-0.4,0.6&#10;&#9;&#9;l-61.2,35C102.2,357.8,102.1,357.8,101.9,357.8z M100,339.4l2.5,16.6l59.9-34.2l1.3-40.3l-29.8-1.6l1.6,31.8c0,0.2-0.1,0.5-0.3,0.6&#10;&#9;&#9;L100,339.4z"/>
	<polygon class="st1_dog-walking-61" points="134.8,291.1 171.6,371 187.2,370 162.8,279.8 &#9;"/>
	<path class="st2_dog-walking-61" d="M171.6,371.7c-0.3,0-0.5-0.2-0.6-0.4l-36.8-79.8c-0.1-0.2-0.1-0.4,0-0.5c0.1-0.2,0.2-0.3,0.4-0.4l28-11.4&#10;&#9;&#9;c0.2-0.1,0.4-0.1,0.6,0c0.2,0.1,0.3,0.3,0.4,0.5l24.3,90.2c0.1,0.2,0,0.4-0.1,0.6c-0.1,0.2-0.3,0.3-0.5,0.3L171.6,371.7&#10;&#9;&#9;L171.6,371.7z M135.8,291.5l36.2,78.7l14.2-0.9l-23.9-88.6L135.8,291.5z"/>
	<path class="st2_dog-walking-61" d="M171.6,371l6.5,17.7c0,0,36.7-12.2,39.2-14.5s-5.5-5.4-7.1-4.9s-7.5,1.8-9.6,1.5s-15.4-5.5-15.4-5.5L171.6,371&#10;&#9;&#9;z"/>
	<path class="st2_dog-walking-61" d="M178.1,389.4c-0.3,0-0.6-0.2-0.6-0.5l-6.4-17.7c-0.1-0.4,0-0.7,0.4-0.9l13.6-5.6c0.2-0.1,0.4-0.1,0.5,0&#10;&#9;&#9;c3.7,1.4,13.5,5.1,15.2,5.4c1.9,0.3,7.6-1,9.4-1.5c1.6-0.4,6.9,1.5,8.1,3.6c0.5,0.8,0.3,1.8-0.4,2.5c-2.5,2.3-35.6,13.4-39.4,14.6&#10;&#9;&#9;C178.3,389.4,178.2,389.4,178.1,389.4z M172.5,371.4l6,16.5c14.7-4.9,36.6-12.5,38.2-14.1c0.2-0.2,0.3-0.5,0.2-0.7c0,0,0,0,0,0&#10;&#9;&#9;c-0.9-1.7-5.7-3.2-6.5-3c-1.4,0.4-7.6,1.9-9.9,1.5c-2-0.3-13.3-4.6-15.2-5.4L172.5,371.4z"/>
	<path class="st2_dog-walking-61" d="M99.3,339.1l-19.2,9.5c0,0-4.2,32.8-3.4,36.1s7.4-2.1,7.8-3.6c1.7-4.1,3.7-8,6-11.8&#10;&#9;&#9;c1.3-1.7,11.5-12.2,11.5-12.2L99.3,339.1z"/>
	<path class="st2_dog-walking-61" d="M77.9,386.4L77.9,386.4c-0.9,0-1.8-0.6-1.9-1.6c-0.8-3.3,3-33,3.4-36.3c0-0.2,0.2-0.4,0.4-0.5l19.2-9.5&#10;&#9;&#9;c0.2-0.1,0.4-0.1,0.6,0c0.2,0.1,0.3,0.3,0.4,0.5l2.7,18c0,0.2,0,0.4-0.2,0.6c-0.1,0.1-10.1,10.5-11.4,12.1&#10;&#9;&#9;c-2.3,3.7-4.3,7.5-5.9,11.5C84.7,382.8,80.4,386.4,77.9,386.4z M80.7,349.1c-1.7,13.2-3.9,33.2-3.4,35.5c0.1,0.4,0.2,0.5,0.6,0.5&#10;&#9;&#9;l0,0c1.9,0,5.6-3.3,5.8-4.1c1.7-4.2,3.7-8.2,6.1-12c1.2-1.5,9.7-10.3,11.3-12l-2.5-16.7L80.7,349.1z"/>
	<path class="st2_dog-walking-61" d="M122.6,236c0,0-6.9,19.9-3.2,35.2s17.4,33.5,17.4,33.5l34.1-9.8l-2.5-55.1L122.6,236z"/>
	<path class="st2_dog-walking-61" d="M136.8,305.4c-0.2,0-0.4-0.1-0.6-0.3c-0.1-0.2-13.8-18.4-17.6-33.8s2.9-34.8,3.2-35.6c0.1-0.3,0.4-0.5,0.7-0.5&#10;&#9;&#9;l45.9,3.9c0.3,0,0.6,0.3,0.6,0.7l2.5,55.1c0,0.3-0.2,0.6-0.5,0.7l-34.1,9.8C136.9,305.4,136.9,305.4,136.8,305.4z M123.1,236.7&#10;&#9;&#9;c-1,3.2-6.3,20.7-3,34.3c3.4,13.8,15.1,30.2,17,32.9l33.1-9.5l-2.4-53.9L123.1,236.7z"/>
	<path class="st1_dog-walking-61" d="M170.9,295.7c-0.3,0-0.6-0.2-0.7-0.5c-0.1-0.4-11.9-35.2-14.9-41.3c-0.2-0.3,0-0.8,0.3-0.9&#10;&#9;&#9;c0.3-0.2,0.8,0,0.9,0.3c0,0,0,0,0,0c3.1,6.1,14.5,40,15,41.5c0.1,0.4-0.1,0.8-0.4,0.9C171.1,295.7,171,295.7,170.9,295.7z"/>
	<path class="st1_dog-walking-61" d="M159.9,268.2c-0.3,0-0.5-0.2-0.6-0.4c-0.1-0.3-0.1-0.4,2.6-10.1c0.1-0.4,0.5-0.6,0.8-0.5c0,0,0,0,0,0&#10;&#9;&#9;c0.4,0.1,0.6,0.5,0.5,0.9c-1,3.4-2.5,8.9-2.6,9.5c0,0.3-0.2,0.5-0.4,0.6C160.1,268.2,160,268.2,159.9,268.2z"/>
	<path class="st3_dog-walking-61 targetColor" d="M122.6,236v-34l-7,19.3l-20.3-9.5c0,0,10-34.5,23-40.8s51.7-6.8,56.7,0.3s-6.6,68.6-6.6,68.6L122.6,236z" style="fill: rgb(53, 106, 156);"/>
	<path class="st2_dog-walking-61" d="M133.6,146.5c0,0-10.5,4.6-10.1,9s20.3-2.3,20.3-2.3L133.6,146.5z"/>
	<path class="st2_dog-walking-61" d="M126.9,157.6c-1.1,0.1-2.1-0.1-3.1-0.6c-0.5-0.3-0.8-0.9-0.9-1.5c-0.5-4.7,9.4-9.2,10.5-9.6&#10;&#9;&#9;c0.2-0.1,0.5-0.1,0.7,0.1l10.2,6.7c0.2,0.1,0.3,0.4,0.3,0.7c0,0.3-0.2,0.5-0.5,0.6C142.7,154.3,132.6,157.6,126.9,157.6z&#10;&#9;&#9; M133.6,147.3c-3,1.4-9.6,5.1-9.3,8.1c0,0.2,0.1,0.3,0.3,0.4c2.1,1.4,11.5-0.9,17.7-2.9L133.6,147.3z"/>
	<path class="st1_dog-walking-61" d="M167.3,136.4c-0.2-0.4-0.4-0.9-0.7-1.3c-2.7-4.7-11.2-4.1-15.7-3.3c-4.2,0.6-8.3,2.3-11.7,4.9&#10;&#9;&#9;c-6.6,5.5-6,16.8-3.2,24.1c0.1,0.2,0.2,0.5,0,0.7c-0.1,0.1-0.3,0.2-0.4,0.1l-2,0.1c0.1,0.8,0.5,1.4,1.1,1.9&#10;&#9;&#9;c3.9,3.9,9.9,5.3,15.3,4.4c7.6-1.2,17.8-7.2,19.1-15.5C170.1,147.3,169.8,141.4,167.3,136.4z"/>
	<path class="st2_dog-walking-61" d="M146.9,169.2c-4.7,0.1-9.3-1.7-12.7-4.9c-0.7-0.6-1.2-1.5-1.3-2.4c0-0.4,0.3-0.7,0.7-0.8c0,0,0,0,0,0l1.7-0.1&#10;&#9;&#9;c-3-8.1-3.1-19.3,3.5-24.8c3-2.5,6.9-4.2,12-5.1c3.9-0.7,13.3-1.8,16.4,3.6c0.2,0.4,0.5,0.9,0.7,1.3l0,0c2.9,5.9,2.6,12.4,1.9,16.8&#10;&#9;&#9;c-1.5,9.2-12.4,14.9-19.7,16.1C149.1,169.1,148,169.2,146.9,169.2z M134.6,162.5c0.2,0.3,0.4,0.5,0.6,0.8c3.5,3.5,9.1,5.1,14.7,4.2&#10;&#9;&#9;c7.9-1.3,17.3-7.3,18.5-14.9c0.7-4.2,0.9-10.3-1.8-15.9l0,0c-0.2-0.4-0.4-0.8-0.6-1.2c-2.7-4.8-12.1-3.4-14.9-2.9&#10;&#9;&#9;c-4.8,0.9-8.5,2.5-11.3,4.8c-5.9,4.9-5.9,15.4-3,23.3c0.2,0.5,0.2,1-0.1,1.4c-0.3,0.3-0.6,0.4-1,0.4L134.6,162.5z"/>
	<path class="st1_dog-walking-61" d="M162.1,165.8l0.2,10.8c0,0-3.6,6.5-10.5,4.5c-4.1-1.3-7.4-4.3-9.1-8.3l1.1-19.6c0,0,5.3-2.5,4.4-13.8&#10;&#9;&#9;c0,0,6.6-0.8,17-1.6c0,0,3.5,17.3,2.4,22.6S162.1,165.8,162.1,165.8z"/>
	<path class="st2_dog-walking-61" d="M154.5,182.3c-1,0-1.9-0.2-2.8-0.4c-4.3-1.3-7.9-4.5-9.5-8.7c0-0.1,0-0.2,0-0.3l1.1-19.6&#10;&#9;&#9;c0-0.3,0.2-0.5,0.4-0.6c0,0,4.8-2.5,3.9-13.1c0-0.4,0.3-0.7,0.6-0.8c0.1,0,6.7-0.8,17-1.6c0.4,0,0.7,0.2,0.8,0.6&#10;&#9;&#9;c0.1,0.7,3.5,17.5,2.4,23c-0.9,4.5-4.1,5.6-5.5,5.8l0.2,10.2c0,0.1,0,0.2-0.1,0.4C163,177.1,160,182.2,154.5,182.3z M143.6,172.8&#10;&#9;&#9;c1.6,3.7,4.7,6.5,8.5,7.7c5.7,1.7,9-3,9.6-4l-0.2-10.6c0-0.2,0.1-0.4,0.2-0.5c0.1-0.1,0.3-0.2,0.5-0.2l0,0c0.2,0.1,3.8,0,4.8-4.7&#10;&#9;&#9;s-1.7-18.6-2.3-21.7c-8,0.6-13.7,1.2-15.6,1.4c0.6,9.4-3.2,12.7-4.4,13.6L143.6,172.8z M162.1,165.8L162.1,165.8z"/>
	<path class="st1_dog-walking-61" d="M148,153.1c-0.2-1-0.7-1.9-1.4-2.5c-0.7-0.6-1.5-1-2.4-1.4c-0.5-0.2-0.9-0.3-1.4-0.3c-0.3,0-0.7,0.1-1,0.3&#10;&#9;&#9;c-0.8,0.3-1.4,0.9-1.8,1.7c-0.2,0.6-0.3,1.3-0.2,2c0,0.7,0.2,1.5,0.4,2.1c1,2.9,4.2,4.3,7.1,3.3c0,0,0.1,0,0.1,0"/>
	<path class="st2_dog-walking-61" d="M145.4,159.3c-2.6,0-5-1.6-5.9-4.1c-0.3-0.8-0.4-1.5-0.5-2.3c-0.1-0.8,0-1.6,0.2-2.3c0.4-0.9,1.2-1.6,2.1-2&#10;&#9;&#9;c0.4-0.2,0.8-0.3,1.3-0.4c0.6,0,1.2,0.1,1.8,0.4c0.9,0.3,1.8,0.8,2.6,1.5c0.8,0.8,1.4,1.8,1.6,2.9c0.1,0.4-0.2,0.8-0.6,0.9&#10;&#9;&#9;c-0.4,0.1-0.8-0.2-0.9-0.6c-0.2-0.8-0.6-1.6-1.2-2.1c-0.7-0.5-1.4-0.9-2.2-1.2c-0.4-0.2-0.7-0.3-1.1-0.3c-0.3,0-0.5,0.1-0.7,0.2&#10;&#9;&#9;c-0.6,0.3-1.1,0.7-1.4,1.3c-0.2,0.5-0.2,1.1-0.1,1.6c0,0.7,0.2,1.4,0.4,2c0.9,2.5,3.7,3.8,6.2,2.8c0,0,0,0,0.1,0&#10;&#9;&#9;c0.4-0.1,0.8,0,0.9,0.4c0.1,0.4,0,0.8-0.4,0.9C146.9,159.2,146.2,159.4,145.4,159.3z"/>
	<path class="st2_dog-walking-61" d="M162,171.2c-2.6,0.2-5.2-0.8-7-2.7c-2.9-3.1-2.6-4.8-2.6-4.8s4.8,3,9.4,2.3L162,171.2z"/>
	<path class="st2_dog-walking-61" d="M161.5,171.9c-2.6,0-5.2-1-7-2.9c-3.1-3.3-2.8-5.2-2.7-5.4c0-0.2,0.2-0.4,0.4-0.5c0.2-0.1,0.4-0.1,0.6,0.1&#10;&#9;&#9;c0.1,0,4.7,2.8,9,2.2c0.2,0,0.4,0,0.6,0.1c0.2,0.1,0.2,0.3,0.2,0.5l0.2,5.2c0,0.4-0.3,0.7-0.6,0.7&#10;&#9;&#9;C162.1,171.9,161.8,171.9,161.5,171.9z M153.4,165c0.5,1.1,1.2,2.1,2.1,3c1.5,1.6,3.6,2.5,5.8,2.5l-0.1-3.8&#10;&#9;&#9;C158.5,166.8,155.8,166.2,153.4,165z"/>
	<path class="st1_dog-walking-61" d="M159.9,149.2c0,0,3.6,5.5,2.7,6.4s-3.3,0.3-3.3,0.3"/>
	<path class="st2_dog-walking-61" d="M161,156.8c-0.6,0-1.3-0.1-1.9-0.3c-0.4-0.1-0.6-0.5-0.5-0.8c0,0,0,0,0,0c0.1-0.4,0.5-0.6,0.8-0.5c0,0,0,0,0,0&#10;&#9;&#9;c0.8,0.2,2.2,0.4,2.6-0.1c0.1-0.5-1.2-3.1-2.8-5.6c-0.2-0.3-0.1-0.8,0.2-1c0,0,0,0,0,0c0.3-0.2,0.8-0.1,1,0.2c0,0,0,0,0,0&#10;&#9;&#9;c2.6,4,3.4,6.4,2.6,7.3C162.6,156.6,161.8,156.9,161,156.8z"/>
	<path class="st1_dog-walking-61" d="M160,159.8c0,0-4.1,1.3-5.1-2.7"/>
	<path class="st2_dog-walking-61" d="M158.6,160.7c-0.8,0-1.6-0.2-2.3-0.6c-1.1-0.6-1.8-1.7-2.1-2.9c-0.1-0.4,0.1-0.8,0.4-0.9&#10;&#9;&#9;c0.4-0.1,0.8,0.1,0.9,0.4c0,0,0,0.1,0,0.1c0.2,0.8,0.7,1.6,1.4,2c0.9,0.4,1.9,0.5,2.9,0.2c0.4-0.1,0.8,0.1,0.9,0.5&#10;&#9;&#9;c0.1,0.4-0.1,0.8-0.5,0.9C159.7,160.7,159.1,160.7,158.6,160.7z"/>
	<ellipse transform="matrix(0.9803 -0.1977 0.1977 0.9803 -26.4099 33.3141)" class="st2_dog-walking-61" cx="153.7" cy="149" rx="0.9" ry="1.3"/>
	
		<ellipse transform="matrix(0.9803 -0.1977 0.1977 0.9803 -26.2649 35.1988)" class="st2_dog-walking-61" cx="163.2" cy="149.2" rx="0.9" ry="1.3"/>
	<path class="st1_dog-walking-61" d="M133.6,146.5l35.4-7.1c0,0,0.3-15-19-13.9S133.6,146.5,133.6,146.5z"/>
	<path class="st2_dog-walking-61" d="M133.6,147.3c-0.1,0-0.3,0-0.4-0.1c-0.2-0.1-0.3-0.3-0.3-0.5c-0.1-0.4-1.3-9.4,3.9-15.8&#10;&#9;&#9;c2.9-3.6,7.4-5.6,13.1-6c6.8-0.4,11.9,1.1,15.4,4.4c2.7,2.7,4.3,6.3,4.4,10.2c0,0.3-0.3,0.6-0.6,0.7l-35.4,7.1L133.6,147.3z&#10;&#9;&#9; M152,126.3c-0.7,0-1.3,0-2,0.1c-5.4,0.3-9.4,2.1-12.1,5.4c-4,4.9-3.8,11.7-3.6,14l34-6.8c-0.2-3.2-1.6-6.3-3.9-8.5&#10;&#9;&#9;C161.5,127.6,157.4,126.2,152,126.3L152,126.3z"/>
	<path class="st2_dog-walking-61" d="M155.9,142.1c0,0-0.4-5.7,4.1-6.5c5.2-0.9,5.7,4.5,5.7,4.5L155.9,142.1z"/>
	<path class="st2_dog-walking-61" d="M155.9,142.8c-0.2,0-0.3-0.1-0.4-0.1c-0.2-0.1-0.3-0.3-0.3-0.5c-0.1-2.2,0.6-6.5,4.7-7.2c1.5-0.3,3,0,4.3,0.9&#10;&#9;&#9;c1.2,1.1,2,2.6,2.2,4.2c0,0.4-0.2,0.7-0.6,0.8l-9.8,2L155.9,142.8z M161.1,136.2c-0.3,0-0.7,0-1,0.1c-2.9,0.5-3.4,3.5-3.5,4.9&#10;&#9;&#9;l8.3-1.7c-0.2-1-0.8-2-1.6-2.7C162.6,136.4,161.9,136.2,161.1,136.2z"/>
	<path class="st2_dog-walking-61" d="M197.7,312.4c-0.4,0-0.7-0.3-0.7-0.7l0,0c0-18.8,0-38.1,5.9-56.4c0.8-2.5,2-3.8,3.5-3.9s2.8,0.9,3.9,2.9&#10;&#9;&#9;c0.4,0.8,0.8,1.6,1.1,2.4l0.2,0.2c0.9,1.1,1.7,2.4,2.2,3.8c2.4,5.9,4.9,12.8,2.9,19.3c-0.4,1.5-1.6,3.2-3.3,2.9&#10;&#9;&#9;c-1-0.2-1.7-0.9-2.1-1.9c-0.5,1.6-1.4,3.1-2.8,4.1c-0.6,0.4-1.2,0.6-1.9,0.6c-1.5-0.2-2.2-1.9-2.4-2.5c-3-7.6-3.2-15.9-0.6-23.6&#10;&#9;&#9;c0.9-2.5,2.1-3.9,3.7-4.4l0.4-0.1c0-0.1,0-0.1,0-0.2c0-0.5,0.2-1,0.6-1.3l0,0c-0.4-0.6-1-0.9-1.7-0.9c-0.9,0.1-1.7,1.1-2.3,2.9&#10;&#9;&#9;c-5.8,18.1-5.8,37.3-5.8,56C198.3,312.1,198,312.4,197.7,312.4C197.6,312.4,197.6,312.4,197.7,312.4L197.7,312.4z M207.4,256.7&#10;&#9;&#9;c-1.1,0.3-1.9,1.5-2.6,3.5c-2.5,7.4-2.3,15.4,0.5,22.6c0.4,1,0.8,1.5,1.3,1.6c0.4,0,0.7-0.1,1-0.4c1.6-1.1,2.3-3.1,2.8-5.1&#10;&#9;&#9;C207.9,271.8,206.8,264.2,207.4,256.7z M211.8,278.7c0.1,0.4,0.3,0.7,0.4,1.1c0.4,1,0.8,1.6,1.3,1.7c0.8,0.1,1.5-1.1,1.8-2&#10;&#9;&#9;c1.7-5.8-0.4-12-2.6-17.6c0.8,5.3,0.1,10.8-0.8,15.8C212,278.1,211.9,278.5,211.8,278.7L211.8,278.7z M208.8,256.7&#10;&#9;&#9;c-0.5,6.5,0.2,13,2.1,19.3c1-6,1.4-12.6-0.7-18.5C209.8,257.1,209.3,256.9,208.8,256.7L208.8,256.7z M209,255.3&#10;&#9;&#9;c0.1,0,0.2,0.1,0.3,0.1c-0.1-0.1-0.1-0.2-0.1-0.3l-0.1-0.1c0,0,0,0.1,0,0.1L209,255.3z"/>
	<path class="st1_dog-walking-61" d="M200.5,246c0,0-1.1,7.2,5.4,5.8c0,0-0.9,5.6,0.8,5.3s3.9-6.6,3.9-9.9"/>
	<path class="st2_dog-walking-61" d="M206.6,257.8c-0.4,0-0.7-0.2-1-0.4c-0.9-0.9-0.8-3.3-0.6-4.8c-1.3,0.2-2.7-0.1-3.8-1c-2-1.9-1.5-5.6-1.4-5.7&#10;&#9;&#9;c0-0.4,0.4-0.6,0.7-0.6c0,0,0,0,0.1,0c0.4,0.1,0.6,0.4,0.6,0.8c0,0,0,0,0,0c0,0-0.5,3.1,1,4.5c0.7,0.7,1.9,0.9,3.5,0.5&#10;&#9;&#9;c0.2,0,0.5,0,0.6,0.2c0.2,0.2,0.2,0.4,0.2,0.6c-0.4,2-0.3,4.3,0.1,4.5c1.1-0.1,3.3-5.7,3.3-9.2c0-0.4,0.3-0.7,0.7-0.7l0,0&#10;&#9;&#9;c0.4,0,0.7,0.3,0.7,0.7c0,2.9-1.9,10.3-4.5,10.6L206.6,257.8z"/>
	<polygon class="st3_dog-walking-61 targetColor" points="170.9,186.6 181.7,212.3 159.3,226 &#9;" style="fill: rgb(53, 106, 156);"/>
	<path class="st2_dog-walking-61" d="M170.1,230.9H170c-0.4-0.1-0.6-0.5-0.5-0.8c0,0,0,0,0,0c4.3-17,5.9-50.3,5-52.8c-0.2-0.2-0.2-0.6,0-0.8&#10;&#9;&#9;c0.2-0.3,0.6-0.4,0.9-0.2c0,0,0,0,0.1,0c2.1,1.4-0.6,38.7-4.6,54.1C170.8,230.7,170.5,230.9,170.1,230.9z M174.6,177.4L174.6,177.4&#10;&#9;&#9;z"/>
	<path class="st2_dog-walking-61" d="M118.3,212.9c-0.3,0-0.5-0.1-0.6-0.4c-0.2-0.3-0.1-0.7,0.2-0.9c1-1.4,9.7-21.5,11.1-26.6&#10;&#9;&#9;c0.1-0.4,0.4-0.6,0.8-0.5c0.4,0.1,0.6,0.4,0.5,0.8c0,0,0,0.1,0,0.1c-0.9,3.5-10.3,26.7-11.6,27.4&#10;&#9;&#9;C118.5,212.9,118.4,212.9,118.3,212.9z"/>
</g>
<g id="Dog_dog-walking-61">
	<path class="st2_dog-walking-61" d="M363.1,332.8c0,0-14.8,19.2-15.1,20.6s-3.8,25.7-2.8,27.1s6.2,2.1,5.5,4.1s-12.5,2.8-13.3,0s1.5-35.4,0-37.8&#10;&#9;&#9;s7.8-22.7,7.8-22.7L363.1,332.8z"/>
	<path class="st2_dog-walking-61" d="M343.4,387.2H343c-2.1,0-5.6-0.4-6.2-2.3c-0.4-1.2-0.2-6.7,0.1-15.5c0.3-8.3,0.7-20.9,0-22.1&#10;&#9;&#9;c-1.5-2.5,5.6-18.5,7.8-23.4c0.1-0.2,0.2-0.3,0.4-0.4c0.2-0.1,0.4-0.1,0.5,0l17.9,8.6c0.2,0.1,0.3,0.3,0.4,0.5c0,0.2,0,0.4-0.1,0.6&#10;&#9;&#9;c-5.6,7.3-14.6,19.2-15,20.4c-0.5,2-3.5,24.8-2.8,26.6c0.7,0.5,1.4,0.9,2.2,1.1c1.8,0.8,4,1.7,3.4,3.6S345.7,387.2,343.4,387.2z&#10;&#9;&#9; M345.6,325.1c-4.3,9.4-8.3,20.1-7.6,21.4c0.9,1.4,0.7,10,0.2,22.9c-0.2,6.9-0.5,14-0.2,15.1c0.1,0.5,1.4,1.1,3.9,1.3&#10;&#9;&#9;c4.1,0.3,7.8-0.7,8-1.3s-1.4-1.3-2.6-1.9c-1-0.3-2-0.9-2.8-1.7c-1.4-1.9,2.6-27.5,2.6-27.7c0.3-1.3,10.8-15,14.7-20.2L345.6,325.1z&#10;&#9;&#9;"/>
	<path class="st2_dog-walking-61" d="M281.6,329c0,0,13.4,12.4,11.4,17.9s-7.2,22-7.2,22s5.2,17.7,10,17.6s14.1,2.8,13.8,0s-4.5-3.2-5.5-3.9&#10;&#9;&#9;s-4.8-1.4-5.5-2.1s-5.5-11.3-4.5-12s16.5-18.2,17.5-24.4s-3.8-29.9-3.8-29.9S288.2,314.9,281.6,329z"/>
	<path class="st2_dog-walking-61" d="M307.2,388.5c-1.8-0.1-3.7-0.3-5.5-0.6c-2-0.4-4-0.6-6-0.6h0c-5.2,0-10.1-16.3-10.6-18.1c0-0.1,0-0.3,0-0.4&#10;&#9;&#9;c0.1-0.2,5.2-16.6,7.2-22c1.5-4.1-7.5-13.8-11.2-17.1c-0.2-0.2-0.3-0.5-0.2-0.8c6.6-14.3,25.9-15.2,26.8-15.2&#10;&#9;&#9;c0.3,0,0.6,0.2,0.7,0.6c0.2,1,4.8,23.9,3.8,30.2s-15.6,22.9-17.7,24.8c-0.1,1.5,3.6,10.2,4.4,11.1c0.8,0.4,1.6,0.7,2.5,0.9&#10;&#9;&#9;c1,0.2,2,0.6,2.9,1.1c0.4,0.2,0.8,0.3,1.2,0.5c1.7,0.5,4.3,1.4,4.6,3.9c0.1,0.5-0.1,1-0.5,1.4C309.1,388.3,308.1,388.6,307.2,388.5&#10;&#9;&#9;z M296,385.8c2,0.1,4,0.3,6,0.7c2.6,0.4,6.1,0.9,6.8,0.3c0,0,0,0,0-0.2c-0.2-1.6-2.2-2.3-3.7-2.8c-0.5-0.1-1-0.3-1.5-0.6&#10;&#9;&#9;c-0.8-0.4-1.7-0.7-2.5-0.9c-1.1-0.2-2.1-0.6-3.1-1.2c-0.8-0.8-5-10.1-4.8-12.2c0-0.3,0.2-0.7,0.5-0.9c1.3-0.9,16.3-18.1,17.2-24&#10;&#9;&#9;c0.9-5.5-2.9-25.4-3.7-29.1c-3.2,0.3-18.9,2.1-24.7,13.9c2.5,2.4,13.2,12.9,11.1,18.3c-1.9,5.1-6.5,19.9-7.1,21.8&#10;&#9;&#9;c2,6.6,6.1,16.9,9.2,16.9L296,385.8z"/>
	<polygon class="st2_dog-walking-61" points="395.2,267.4 386.9,246.3 405.7,267.4 &#9;"/>
	<path class="st2_dog-walking-61" d="M405.7,268.1h-10.5c-0.3,0-0.5-0.2-0.6-0.4l-8.3-21.1c-0.1-0.3,0-0.7,0.3-0.9c0.3-0.2,0.7-0.1,0.9,0.1&#10;&#9;&#9;l18.7,21.2c0.2,0.2,0.2,0.5,0.1,0.8C406.2,268,405.9,268.1,405.7,268.1z M395.7,266.7h8.5L389,249.7L395.7,266.7z"/>
	<path class="st2_dog-walking-61" d="M385.5,271.7c0,1-38.5,22.4-63.6,18.2s-41.3-6.2-52.6,13.4s-7.2,38.5-14.4,44.7s-22,4.8-22,5.9s-1.7,12,0,20&#10;&#9;&#9;s5.5,11,7.9,9.6s-2.4-17.5-0.7-23c0,0,10.7,2.4,24.8-3.1s20.6-25.5,32-29.6s17.5-0.7,19.3,0s10,15.5,25.5,16.2s22-2.4,22-2.4&#10;&#9;&#9;s-2.4,20,2.8,21s22.7,0.7,25.5,3.4c2.2,2.2,4.5,5.7,4.8,8.9c0,1.6,0.3,3.2,0.9,4.7c0.2,0.5,0.6,0.9,1.1,1.2c1.4,0.7,3-0.2,4-1.5&#10;&#9;&#9;c3.5-4.3,0.7-6.9-1.4-10.8c-1.5-2.8-3.7-8-7-9.1c-4.1-1.4-16.9-5.2-16.9-5.2s-2.4-16.2-1-20.6s28.9-44.4,33-46.8s23-3.4,27.5-9.6&#10;&#9;&#9;s0-11,0-11s-15.5,1-25.5-1.4c-6.6-1.4-13.4-1.4-19.9,0l-13.1-18.6L385.5,271.7z"/>
	<path class="st2_dog-walking-61" d="M239.6,384.5c-0.5,0-1-0.1-1.5-0.3c-2.6-1.1-4.8-4.9-5.9-10.2c-1.4-6.7-0.5-15.5-0.1-18.8&#10;&#9;&#9;c0.1-0.7,0.1-1.1,0.1-1.3c0-1,0.9-1,4-1.2c4.7-0.3,13.4-1,18.2-5.1c3.2-2.7,4.1-8.3,5.2-15.3c1.3-8.3,3-18.7,9.1-29.2&#10;&#9;&#9;c11.9-20.6,29.3-17.7,53.3-13.8c23.4,3.8,59.3-14.9,62.7-17.7l-7.1-25.1c-0.1-0.3,0.1-0.7,0.4-0.8c0.3-0.1,0.7-0.1,0.9,0.2&#10;&#9;&#9;l12.8,18.2c6.5-1.3,13.3-1.3,19.8,0.1c9.8,2.4,25.1,1.4,25.2,1.4c0.2,0,0.4,0.1,0.6,0.2c0,0.1,4.8,5.3,0,11.9&#10;&#9;&#9;c-3,4.2-12.1,6.1-19.4,7.6c-3.8,0.8-7,1.5-8.4,2.2c-4.1,2.4-31.5,42.6-32.7,46.4s0.6,17.3,1,19.9c2.3,0.7,12.8,3.8,16.5,5&#10;&#9;&#9;c3.1,1,5.2,5.2,6.8,8.2l0.6,1.2c0.4,0.7,0.7,1.3,1.1,1.9c1.8,3,3.4,5.8,0.2,9.7c-1.1,1.4-3.2,2.6-4.9,1.6c-0.6-0.4-1.1-0.9-1.4-1.5&#10;&#9;&#9;c-0.6-1.3-0.9-2.8-0.9-4.3l0-0.7c-0.2-3.1-2.6-6.5-4.6-8.5c-1.6-1.6-10.1-2.1-16.3-2.5c-2.9-0.1-5.9-0.4-8.8-0.8&#10;&#9;&#9;c-1-0.2-5.5-2.1-3.4-20.6c-2.5,0.9-9.1,2.6-21.2,2c-12.4-0.6-20.2-9.8-23.9-14.3c-0.5-0.7-1.1-1.4-1.8-2l-0.4-0.2&#10;&#9;&#9;c-2.2-1-8-3.5-18.3,0.2c-5.2,1.9-9.5,7.4-14,13.2c-5.1,6.6-10.4,13.5-18,16.4c-12.3,4.8-21.9,3.7-24.5,3.3c-0.6,2.7,0.1,7.6,0.8,12&#10;&#9;&#9;c0.9,6.5,1.3,10-0.2,10.8C240.6,384.3,240.1,384.5,239.6,384.5z M233.6,354.3c0,0.2-0.1,0.6-0.1,1c-0.4,3.3-1.3,11.9,0.1,18.4&#10;&#9;&#9;c1.2,5.6,3.4,8.4,5.1,9.2c0.6,0.3,1.2,0.3,1.8,0c0.8-0.5,0-6.1-0.4-9.4c-0.7-5.1-1.5-10.3-0.6-13.2c0.1-0.3,0.5-0.6,0.8-0.5&#10;&#9;&#9;c0.1,0,10.6,2.3,24.4-3.1c7.2-2.8,12.4-9.5,17.4-16c4.6-6,9-11.6,14.6-13.6c10.8-3.9,17-1.2,19.3-0.2l0.4,0.2&#10;&#9;&#9;c0.5,0.2,1,0.8,2.3,2.3c3.6,4.3,11.1,13.3,22.9,13.8c15.1,0.7,21.6-2.3,21.7-2.3c0.2-0.1,0.5-0.1,0.7,0.1c0.2,0.2,0.3,0.4,0.3,0.6&#10;&#9;&#9;c-0.9,7.5-1.1,19.5,2.2,20.2c2.9,0.4,5.7,0.7,8.6,0.8c8.9,0.5,15.4,1,17.2,2.9c2.2,2.2,4.7,5.9,5,9.4l0,0.8c0,1.3,0.2,2.5,0.8,3.7&#10;&#9;&#9;c0.2,0.4,0.5,0.7,0.9,1c1,0.5,2.3-0.2,3.1-1.3c2.6-3.2,1.4-5.1-0.4-8.1c-0.4-0.6-0.8-1.3-1.1-2c-0.2-0.4-0.4-0.8-0.6-1.2&#10;&#9;&#9;c-1.3-2.7-3.4-6.7-6-7.5c-4.1-1.4-16.7-5.1-16.8-5.1c-0.3-0.1-0.5-0.3-0.5-0.6c-0.1-0.7-2.4-16.4-1-21s29.1-44.7,33.3-47.2&#10;&#9;&#9;c1.5-0.9,4.8-1.6,8.8-2.4c6.6-1.4,15.8-3.2,18.5-7c3.6-5,1-8.9,0.2-9.9c-2.4,0.1-16.1,0.8-25.3-1.4c-6.5-1.4-13.2-1.4-19.6,0&#10;&#9;&#9;c-0.3,0.1-0.6,0-0.7-0.3L380.2,250l6.1,21.5c0,0.1,0,0.1,0,0.2c0,0.3-0.2,0.6-0.4,0.8c-3.3,2.8-39.8,22.1-64,18.1&#10;&#9;&#9;c-25.9-4.2-41-5.7-51.9,13.1c-6,10.4-7.6,20.6-9,28.8c-1.2,7.3-2.1,13.1-5.6,16.1c-5.2,4.5-14.2,5.1-19.1,5.5&#10;&#9;&#9;C235.2,354.2,234,354.2,233.6,354.3L233.6,354.3z"/>
	<path class="st2_dog-walking-61" d="M280.5,301.1c-5.3,0-13.8-1.1-17.9-7.6c-5.5-8.8-5.7-11.6-5.6-12.2c0.1-0.8,0.8-1.3,1.6-1.2&#10;&#9;&#9;c0.7,0.1,1.2,0.7,1.2,1.5l0,0c0,0,0.1,2.4,5.2,10.5s19.6,6.1,19.8,6.1c0.8-0.1,1.5,0.4,1.6,1.2s-0.4,1.5-1.2,1.6&#10;&#9;&#9;C283.6,301,282.1,301.1,280.5,301.1z"/>
	<path class="st1_dog-walking-61" d="M288.3,334.9c-0.4,0-0.7-0.3-0.7-0.7c0-0.1,0.1-0.3,0.1-0.4c0.1-0.1,8.1-10.2,20.7-8.6c0.4,0,0.7,0.3,0.7,0.7&#10;&#9;&#9;c0,0.4-0.3,0.7-0.7,0.7c-0.1,0-0.1,0-0.2,0c-11.8-1.5-19.3,8-19.4,8.1C288.7,334.8,288.5,334.9,288.3,334.9z"/>
	<path class="st1_dog-walking-61" d="M347.2,345.7c-4.1-0.1-8.1-0.9-12-2.2c-0.4-0.1-0.6-0.5-0.5-0.9c0.1-0.4,0.5-0.6,0.9-0.5c0,0,0,0,0.1,0&#10;&#9;&#9;c0.1,0,11.8,4.1,17.8,0.8c0.3-0.2,0.8-0.1,1,0.3s0.1,0.8-0.3,1l0,0C352,345.3,349.6,345.8,347.2,345.7z"/>
	<circle class="st2_dog-walking-61" cx="438.2" cy="267.1" r="2.8"/>
	<path class="st2_dog-walking-61" d="M438.2,270.6c-1.9,0-3.5-1.6-3.5-3.5c0-1.9,1.6-3.5,3.5-3.5c1.9,0,3.5,1.6,3.5,3.5S440.1,270.6,438.2,270.6&#10;&#9;&#9;C438.2,270.6,438.2,270.6,438.2,270.6z M438.2,265c-1.2,0-2.1,0.9-2.1,2.1s0.9,2.1,2.1,2.1s2.1-0.9,2.1-2.1v0&#10;&#9;&#9;C440.3,265.9,439.3,265,438.2,265z"/>
	<path class="st1_dog-walking-61" d="M406.6,268.7c-0.8,0-1.4,0.6-1.4,1.4c0,0.8,0.6,1.4,1.4,1.4c0.8,0,1.4-0.6,1.4-1.4&#10;&#9;&#9;C408,269.3,407.3,268.7,406.6,268.7z"/>
	<polygon class="st1_dog-walking-61" points="359.3,281.9 386.9,318.2 393.7,311.6 369,276.9 &#9;"/>
	<path class="st2_dog-walking-61" d="M386.9,318.9L386.9,318.9c-0.3,0-0.4-0.1-0.6-0.3l-27.6-36.3c-0.1-0.2-0.2-0.4-0.1-0.6c0-0.2,0.2-0.4,0.4-0.5&#10;&#9;&#9;l9.7-5c0.3-0.2,0.7-0.1,0.9,0.2l24.7,34.7c0.2,0.3,0.2,0.7-0.1,0.9l-6.8,6.6C387.3,318.8,387.1,318.9,386.9,318.9z M360.3,282.1&#10;&#9;&#9;l26.7,35l5.8-5.6l-24-33.7L360.3,282.1z"/>
	<path class="st1_dog-walking-61" d="M411,278.1c-0.4,0-0.7-0.3-0.7-0.7s0.3-0.7,0.7-0.7c9.9-1.3,27.1-2.7,27.2-2.7c0.4,0,0.7,0.3,0.8,0.6&#10;&#9;&#9;c0,0.4-0.3,0.7-0.6,0.7c0,0,0,0,0,0C438.1,275.5,420.9,276.9,411,278.1L411,278.1z"/>
	<path class="st1_dog-walking-61" d="M401.2,264.2L401.2,264.2c-2.8-0.2-5.5-0.2-8.2,0c-0.4,0-0.7-0.3-0.8-0.6s0.3-0.7,0.6-0.8l0,0&#10;&#9;&#9;c2.8-0.2,5.6-0.2,8.4,0c0.4,0,0.7,0.3,0.7,0.7C401.9,263.9,401.6,264.2,401.2,264.2z"/>
	<path class="st2_dog-walking-61" d="M352.3,280.2c-23.5,0-55.9-6.2-81.1-12c-32.9-7.5-60.6-16-60.9-16.1c-0.4-0.1-0.6-0.5-0.5-0.9&#10;&#9;&#9;c0.1-0.4,0.5-0.6,0.9-0.5c1.1,0.3,111.1,33.7,154.7,27.2c0.4-0.1,0.7,0.2,0.8,0.6c0,0,0,0,0,0c0.1,0.4-0.2,0.7-0.6,0.8c0,0,0,0,0,0&#10;&#9;&#9;C361.2,280,356.8,280.3,352.3,280.2z"/>
</g>
</svg>